<?xml version="1.0" encoding="UTF-8"?>
<svg version="1.1" xmlns="http://www.w3.org/2000/svg" width="225" height="225">
<path d="M0 0 C74.25 0 148.5 0 225 0 C225 74.25 225 148.5 225 225 C150.75 225 76.5 225 0 225 C0 150.75 0 76.5 0 0 Z " fill="#FEFEFE" transform="translate(0,0)"/>
<path d="M0 0 C2.72019959 1.14477338 4.72571122 2.90562546 6.94921875 4.8203125 C6.61921875 6.1403125 6.28921875 7.4603125 5.94921875 8.8203125 C3.57421875 8.5703125 3.57421875 8.5703125 0.94921875 7.8203125 C-0.36328125 5.7578125 -0.36328125 5.7578125 -1.05078125 3.8203125 C-4.3362496 6.24118392 -6.53219167 8.01343725 -8.05078125 11.8203125 C-8.40053477 14.076632 -8.40053477 14.076632 -8.36328125 16.3828125 C-8.38003906 17.14722656 -8.39679688 17.91164063 -8.4140625 18.69921875 C-7.95363794 21.38750406 -7.25618357 22.241501 -5.05078125 23.8203125 C-0.33457778 24.83484464 3.84595449 24.20438532 8.01171875 21.8203125 C8.98109375 21.1603125 9.95046875 20.5003125 10.94921875 19.8203125 C10.94921875 18.8303125 10.94921875 17.8403125 10.94921875 16.8203125 C9.95921875 16.4903125 8.96921875 16.1603125 7.94921875 15.8203125 C7.94921875 14.1703125 7.94921875 12.5203125 7.94921875 10.8203125 C10.26171875 11.0078125 10.26171875 11.0078125 12.94921875 11.8203125 C14.8554876 14.17137741 16.03541312 15.6671716 15.8046875 18.75390625 C13.95046274 23.23283273 9.07930277 25.64154354 4.94921875 27.8203125 C0.98973085 28.69393616 -2.41882407 28.00260784 -6.30078125 26.8828125 C-12.40279038 26.78111235 -17.23190721 30.25165537 -22.05078125 33.8203125 C-22.05078125 36.53806803 -20.99998492 37.16459275 -19.17578125 39.1328125 C-15.02739568 43.89758555 -13.54577482 47.81718133 -13.65234375 54.13671875 C-14.56765212 60.30158981 -17.27460188 66.26795375 -20.05078125 71.8203125 C-19.21546875 72.1915625 -19.21546875 72.1915625 -18.36328125 72.5703125 C-13.22503898 75.34774075 -9.991081 78.21500212 -8.05078125 83.8203125 C-7.94349664 90.25738913 -10.10641582 94.08245906 -13.5703125 99.4140625 C-14.89280183 101.56354384 -15.77455911 103.51693734 -16.61328125 105.8828125 C-18.05078125 108.8203125 -18.05078125 108.8203125 -20.55078125 109.9453125 C-23.05078125 109.8203125 -23.05078125 109.8203125 -24.92578125 108.6953125 C-26.05078125 106.8203125 -26.05078125 106.8203125 -25.86328125 104.2578125 C-25.05078125 101.8203125 -25.05078125 101.8203125 -23.05078125 99.8203125 C-21.59671875 99.418125 -21.59671875 99.418125 -20.11328125 99.0078125 C-16.4678971 97.5942962 -15.69019411 96.2812952 -14.05078125 92.8203125 C-16.81354302 93.34299716 -19.37686885 93.92900837 -22.05078125 94.8203125 C-25.37788882 92.62929044 -27.84060929 90.67085963 -29.05078125 86.8203125 C-29.93651103 77.60872279 -25.56335724 70.52558059 -21.05078125 62.8203125 C-23.69078125 62.8203125 -26.33078125 62.8203125 -29.05078125 62.8203125 C-29.05078125 62.4903125 -29.05078125 62.1603125 -29.05078125 61.8203125 C-26.08078125 61.8203125 -23.11078125 61.8203125 -20.05078125 61.8203125 C-20.05078125 61.1603125 -20.05078125 60.5003125 -20.05078125 59.8203125 C-25.49578125 60.3153125 -25.49578125 60.3153125 -31.05078125 60.8203125 C-30.22578125 61.5628125 -29.40078125 62.3053125 -28.55078125 63.0703125 C-26.05078125 65.8203125 -26.05078125 65.8203125 -26.05078125 69.8203125 C-31.36713956 67.48433688 -34.52797066 63.33626044 -37.48828125 58.4453125 C-38.99833499 51.39839504 -36.94898957 45.83626416 -33.40234375 39.765625 C-32.09782178 37.88801824 -30.72171721 36.3739898 -29.05078125 34.8203125 C-30.25734375 33.428125 -30.25734375 33.428125 -31.48828125 32.0078125 C-34.79693952 28.19012988 -35.32252632 24.89176935 -35.28515625 19.828125 C-34.95336577 16.98578653 -33.74600751 15.08061418 -32.05078125 12.8203125 C-31.72078125 13.4803125 -31.39078125 14.1403125 -31.05078125 14.8203125 C-31.38078125 15.4803125 -31.71078125 16.1403125 -32.05078125 16.8203125 C-32.18672279 21.67536746 -31.67226382 25.6035244 -28.48828125 29.3828125 C-27.68390625 30.1871875 -26.87953125 30.9915625 -26.05078125 31.8203125 C-24.27969177 30.69571579 -22.50891889 29.57062047 -20.73828125 28.4453125 C-19.75214844 27.81882812 -18.76601562 27.19234375 -17.75 26.546875 C-15.83790196 25.32379637 -13.93937785 24.0793769 -12.05078125 22.8203125 C-11.79987171 20.5815802 -11.79987171 20.5815802 -12.05078125 18.0703125 C-12.2384536 10.37574607 -8.97863549 6.4288569 -3.8671875 1.04296875 C-2.05078125 -0.1796875 -2.05078125 -0.1796875 0 0 Z " fill="#86C663" transform="translate(123.05078125,58.1796875)"/>
<path d="M0 0 C4.24874732 0.49024008 7.12316231 3.026732 10 6 C12.72193709 9.951199 13.53031102 13.0009532 12.71484375 17.79296875 C11.54501309 21.40474101 9.53913287 24.42506984 7.48046875 27.59375 C6.15797942 29.74323134 5.27622214 31.69662484 4.4375 34.0625 C3 37 3 37 0.5 38.125 C-2 38 -2 38 -3.875 36.875 C-5 35 -5 35 -4.8125 32.4375 C-4 30 -4 30 -2 28 C-1.030625 27.731875 -0.06125 27.46375 0.9375 27.1875 C4.58288415 25.7739837 5.36058714 24.4609827 7 21 C4.23723823 21.52268466 1.6739124 22.10869587 -1 23 C-4.32710757 20.80897794 -6.78982804 18.85054713 -8 15 C-8.33217754 10.43255885 -8.00215699 7.1294488 -6 3 C-5.34 3 -4.68 3 -4 3 C-4 3.66 -4 4.32 -4 5 C-3.34 5 -2.68 5 -2 5 C-1.34 3.35 -0.68 1.7 0 0 Z " fill="#7BC252" transform="translate(102,130)"/>
<path d="M0 0 C2.72019959 1.14477338 4.72571122 2.90562546 6.94921875 4.8203125 C6.61921875 6.1403125 6.28921875 7.4603125 5.94921875 8.8203125 C3.57421875 8.5703125 3.57421875 8.5703125 0.94921875 7.8203125 C-0.36328125 5.7578125 -0.36328125 5.7578125 -1.05078125 3.8203125 C-4.3362496 6.24118392 -6.53219167 8.01343725 -8.05078125 11.8203125 C-8.40053477 14.076632 -8.40053477 14.076632 -8.36328125 16.3828125 C-8.38003906 17.14722656 -8.39679688 17.91164063 -8.4140625 18.69921875 C-7.95363794 21.38750406 -7.25618357 22.241501 -5.05078125 23.8203125 C-0.33457778 24.83484464 3.84595449 24.20438532 8.01171875 21.8203125 C8.98109375 21.1603125 9.95046875 20.5003125 10.94921875 19.8203125 C10.94921875 18.8303125 10.94921875 17.8403125 10.94921875 16.8203125 C9.95921875 16.4903125 8.96921875 16.1603125 7.94921875 15.8203125 C7.94921875 14.1703125 7.94921875 12.5203125 7.94921875 10.8203125 C10.26171875 11.0078125 10.26171875 11.0078125 12.94921875 11.8203125 C14.8554876 14.17137741 16.03541312 15.6671716 15.8046875 18.75390625 C13.95046274 23.23283273 9.07930277 25.64154354 4.94921875 27.8203125 C0.98973085 28.69393616 -2.41882407 28.00260784 -6.30078125 26.8828125 C-11.72895468 26.79234294 -15.01464722 29.44040071 -19.4765625 32.3515625 C-20.75080078 33.07859375 -20.75080078 33.07859375 -22.05078125 33.8203125 C-22.71078125 33.4903125 -23.37078125 33.1603125 -24.05078125 32.8203125 C-22.57905344 28.84495576 -20.68412039 27.94063808 -16.92578125 26.1953125 C-14.18226471 24.76494538 -14.18226471 24.76494538 -12.05078125 22.8203125 C-11.42853915 20.11069086 -11.59905609 17.96450388 -11.87109375 15.20703125 C-12.20371221 10.78899036 -10.15012989 8.14802825 -7.43359375 4.8671875 C-2.74794552 -0.24077237 -2.74794552 -0.24077237 0 0 Z " fill="#1A7FBF" transform="translate(123.05078125,58.1796875)"/>
<path d="M0 0 C4.60809302 2.04804134 8.01721509 4.55858214 10.875 8.75 C12.29283442 12.8459661 12.31725992 15.93304998 11 20 C9.61748327 22.62884525 8.09847526 25.10332668 6.48046875 27.59375 C5.15797942 29.74323134 4.27622214 31.69662484 3.4375 34.0625 C2 37 2 37 -0.5 38.125 C-3 38 -3 38 -4.875 36.875 C-6 35 -6 35 -5.8125 32.4375 C-5 30 -5 30 -3 28 C-2.05125 27.773125 -1.1025 27.54625 -0.125 27.3125 C3.33377975 25.85981251 4.64809581 24.42533369 6.29296875 21.05859375 C7.59637528 17.26359242 8.07029755 13.90831233 7 10 C5.34107584 7.86768557 3.61680492 6.2209469 1.53125 4.5078125 C1.0259375 4.01023438 0.520625 3.51265625 0 3 C0 2.01 0 1.02 0 0 Z " fill="#1F82C0" transform="translate(103,130)"/>
<path d="M0 0 C2 2 2 2 2.4375 5.8125 C2.24889143 14.79316952 -2.30256768 23.51890408 -7 31 C-7.66 31 -8.32 31 -9 31 C-9 30.34 -9 29.68 -9 29 C-9.66 28.67 -10.32 28.34 -11 28 C-9.02 24.37 -7.04 20.74 -5 17 C-7.64 17 -10.28 17 -13 17 C-13 16.67 -13 16.34 -13 16 C-10.03 16 -7.06 16 -4 16 C-4 15.34 -4 14.68 -4 14 C-8.29 14 -12.58 14 -17 14 C-16.67 13.34 -16.34 12.68 -16 12 C-11.38 12 -6.76 12 -2 12 C-2 11.34 -2 10.68 -2 10 C-6.95 10 -11.9 10 -17 10 C-17 9.67 -17 9.34 -17 9 C-12.05 9 -7.1 9 -2 9 C-2 8.01 -2 7.02 -2 6 C-6.95 6 -11.9 6 -17 6 C-17 5.67 -17 5.34 -17 5 C-12.05 5 -7.1 5 -2 5 C-1.34 3.35 -0.68 1.7 0 0 Z " fill="#77C04F" transform="translate(107,104)"/>
<path d="M0 0 C1.97986082 0.11347619 3.95891598 0.2410935 5.9375 0.375 C7.03964844 0.44460937 8.14179687 0.51421875 9.27734375 0.5859375 C10.62505859 0.79089844 10.62505859 0.79089844 12 1 C12.33 1.66 12.66 2.32 13 3 C8.71 3 4.42 3 0 3 C0 3.66 0 4.32 0 5 C4.62 5 9.24 5 14 5 C14 7.97 14 10.94 14 14 C11.5211787 14.19389096 9.04219069 14.38040123 6.5625 14.5625 C5.50192383 14.64661133 5.50192383 14.64661133 4.41992188 14.73242188 C2.61572163 14.86190993 0.80768048 14.93521608 -1 15 C-2.64745596 13.35254404 -2.1709616 11.44664549 -2.1875 9.1875 C-2.20167969 8.31480469 -2.21585937 7.44210938 -2.23046875 6.54296875 C-1.99010406 3.89080915 -1.34187309 2.27535001 0 0 Z " fill="#E7F3E1" transform="translate(91,102)"/>
<path d="M0 0 C0.66 0 1.32 0 2 0 C2.33 0.99 2.66 1.98 3 3 C1.38405168 5.04119788 -0.2856382 7.04072937 -2 9 C-3.44932983 13.34798948 -3.51669065 17.45595345 -3 22 C-0.96042395 26.00631009 1.22309209 28.57198777 5 31 C4.505 32.485 4.505 32.485 4 34 C-1.31635831 31.66402438 -4.47718941 27.51594794 -7.4375 22.625 C-8.96121579 15.51432631 -6.86064994 9.95220453 -3.25390625 3.84765625 C-2 2 -2 2 0 0 Z " fill="#1E81C2" transform="translate(93,94)"/>
<path d="M0 0 C0.33 0.66 0.66 1.32 1 2 C0.67 2.66 0.34 3.32 0 4 C-0.13594154 8.85505496 0.37851743 12.7832119 3.5625 16.5625 C4.366875 17.366875 5.17125 18.17125 6 19 C6.66 18.67 7.32 18.34 8 18 C8.4021875 19.1446875 8.4021875 19.1446875 8.8125 20.3125 C9.95800967 22.90496926 10.99711522 24.08815544 13 26 C13 26.66 13 27.32 13 28 C12.01 28.33 11.02 28.66 10 29 C8.38643496 27.46817277 6.78453393 25.92405437 5.1875 24.375 C4.29417969 23.51648438 3.40085937 22.65796875 2.48046875 21.7734375 C-0.90554983 17.98749547 -3.43919763 14.14820741 -3.375 8.9375 C-3.0007742 5.00812909 -2.33553566 3.11404755 0 0 Z " fill="#7CC15A" transform="translate(91,71)"/>
<path d="M0 0 C0.99 0.66 1.98 1.32 3 2 C3.36328125 4.09375 3.36328125 4.09375 3.3125 6.5 C3.30863281 7.2940625 3.30476563 8.088125 3.30078125 8.90625 C3 11 3 11 1 13 C1 12.34 1 11.68 1 11 C-2.3 11 -5.6 11 -9 11 C-9.33 8.03 -9.66 5.06 -10 2 C-6.7 2 -3.4 2 0 2 C0 1.34 0 0.68 0 0 Z " fill="#E9F4E6" transform="translate(108,138)"/>
<path d="M0 0 C0.33 0 0.66 0 1 0 C1.33 1.65 1.66 3.3 2 5 C2.66 5 3.32 5 4 5 C4 5.99 4 6.98 4 8 C7.96 8 11.92 8 16 8 C16 8.33 16 8.66 16 9 C12.37 9 8.74 9 5 9 C5 9.66 5 10.32 5 11 C8.3 11 11.6 11 15 11 C15 11.66 15 12.32 15 13 C13.8553125 13.2165625 13.8553125 13.2165625 12.6875 13.4375 C9.91827092 13.9632594 9.91827092 13.9632594 7 15 C3.67289243 12.80897794 1.21017196 10.85054713 0 7 C-0.0777346 4.66796188 -0.08967728 2.33160941 0 0 Z " fill="#7CC256" transform="translate(94,138)"/>
<path d="M0 0 C5.93234574 2.63659811 9.62632051 5.87840551 12 12 C12.1875 14.875 12.1875 14.875 12 17 C10.66666667 17 9.33333333 17 8 17 C7.979375 15.989375 7.95875 14.97875 7.9375 13.9375 C7.35760212 9.47047414 4.79413706 7.41829107 1.49609375 4.578125 C0 3 0 3 0 0 Z " fill="#147CBE" transform="translate(103,130)"/>
<path d="M0 0 C3.96 0 7.92 0 12 0 C9.1875 9.24107143 9.1875 9.24107143 6 12 C6 11.01 6 10.02 6 9 C4.76914922 5.30744766 2.75553387 3.68487915 0 1 C0 0.67 0 0.34 0 0 Z " fill="#D0E8D2" transform="translate(91,118)"/>
<path d="M0 0 C2.31 0 4.62 0 7 0 C7.33 1.98 7.66 3.96 8 6 C5.6875 6.6875 5.6875 6.6875 3 7 C1.1875 5.8125 1.1875 5.8125 0 4 C0 2.68 0 1.36 0 0 Z " fill="#2D86C1" transform="translate(97,161)"/>
<path d="M0 0 C1.67542976 0.28604898 3.34385343 0.61781233 5 1 C5.625 2.875 5.625 2.875 6 5 C5.34 5.66 4.68 6.32 4 7 C1.375 6.625 1.375 6.625 -1 6 C-1.042721 4.33388095 -1.04063832 2.66617115 -1 1 C-0.67 0.67 -0.34 0.34 0 0 Z " fill="#72BD46" transform="translate(96,78)"/>
<path d="M0 0 C4.29 0 8.58 0 13 0 C12.67 1.98 12.34 3.96 12 6 C11.67 5.34 11.34 4.68 11 4 C7.7 4 4.4 4 1 4 C0.67 2.68 0.34 1.36 0 0 Z " fill="#E1F1D9" transform="translate(98,145)"/>
<path d="M0 0 C0.66 0.66 1.32 1.32 2 2 C1.70608813 6.40867812 0.46007056 9.36337396 -2 13 C-2.33 12.34 -2.66 11.68 -3 11 C-3.66 10.67 -4.32 10.34 -5 10 C-3.35 6.7 -1.7 3.4 0 0 Z " fill="#1E81C0" transform="translate(112,144)"/>
<path d="M0 0 C0.66 0 1.32 0 2 0 C2.33 0.99 2.66 1.98 3 3 C0.75 6.1875 0.75 6.1875 -2 9 C-2.99 9 -3.98 9 -5 9 C-3.7580393 5.56072421 -2.44259716 2.74792181 0 0 Z " fill="#187EBE" transform="translate(93,94)"/>
<path d="M0 0 C1.97986082 0.11347619 3.95891598 0.2410935 5.9375 0.375 C7.03964844 0.44460937 8.14179687 0.51421875 9.27734375 0.5859375 C10.62505859 0.79089844 10.62505859 0.79089844 12 1 C12.33 1.66 12.66 2.32 13 3 C8.71 3 4.42 3 0 3 C0 3.66 0 4.32 0 5 C-0.66 4.67 -1.32 4.34 -2 4 C-1.34 2.68 -0.68 1.36 0 0 Z " fill="#F0F7F2" transform="translate(91,102)"/>
<path d="M0 0 C2.04119788 1.61594832 4.04072937 3.2856382 6 5 C6 5.66 6 6.32 6 7 C3.36 7 0.72 7 -2 7 C-1.67 6.21625 -1.34 5.4325 -1 4.625 C0.11866511 2.15667503 0.11866511 2.15667503 0 0 Z " fill="#F0F8F1" transform="translate(95,94)"/>
<path d="M0 0 C2.12038635 2.61514317 4.13091744 5.19637616 6 8 C3.03 8 0.06 8 -3 8 C-3 7.34 -3 6.68 -3 6 C-1.68 5.67 -0.36 5.34 1 5 C0.34 4.67 -0.32 4.34 -1 4 C-0.67 2.68 -0.34 1.36 0 0 Z " fill="#EAF4ED" transform="translate(102,130)"/>
<path d="M0 0 C3.24271506 0.5590888 4.93057424 1.4132178 7 4 C7 4.66 7 5.32 7 6 C6.01 6.33 5.02 6.66 4 7 C2 5.1875 2 5.1875 0 3 C0 2.01 0 1.02 0 0 Z " fill="#72BE49" transform="translate(97,93)"/>
<path d="M0 0 C3.96 0 7.92 0 12 0 C12 0.66 12 1.32 12 2 C8.7 2.33 5.4 2.66 2 3 C1.34 2.01 0.68 1.02 0 0 Z " fill="#FBFEFC" transform="translate(91,118)"/>
<path d="M0 0 C0.99 0.33 1.98 0.66 3 1 C2.34 2.98 1.68 4.96 1 7 C0.34 7 -0.32 7 -1 7 C-1 6.34 -1 5.68 -1 5 C-1.66 4.67 -2.32 4.34 -3 4 C-2.01 2.68 -1.02 1.36 0 0 Z " fill="#70BD45" transform="translate(99,128)"/>
<path d="M0 0 C2.475 0.495 2.475 0.495 5 1 C4.67 2.32 4.34 3.64 4 5 C2.68 5 1.36 5 0 5 C0 3.35 0 1.7 0 0 Z " fill="#0878BE" transform="translate(131,69)"/>
<path d="M0 0 C-1.3125 1.5 -1.3125 1.5 -3 3 C-3.99 3 -4.98 3 -6 3 C-6 2.34 -6 1.68 -6 1 C-7.65 1 -9.3 1 -11 1 C-11 0.67 -11 0.34 -11 0 C-3.57142857 -1.28571429 -3.57142857 -1.28571429 0 0 Z " fill="#388EC6" transform="translate(131,83)"/>
<path d="M0 0 C0.33 0 0.66 0 1 0 C1.33 1.65 1.66 3.3 2 5 C2.66 5 3.32 5 4 5 C4 6.65 4 8.3 4 10 C3.01 10.495 3.01 10.495 2 11 C-0.32590854 7.36576791 -0.16265833 4.22911669 0 0 Z " fill="#83C45E" transform="translate(94,138)"/>
<path d="M0 0 C0.66 0 1.32 0 2 0 C2.33 2.31 2.66 4.62 3 7 C1.66666667 7 0.33333333 7 -1 7 C-1.04254356 5.00045254 -1.04080783 2.99958364 -1 1 C-0.67 0.67 -0.34 0.34 0 0 Z " fill="#398EC6" transform="translate(112,140)"/>
<path d="M0 0 C1.98 0.495 1.98 0.495 4 1 C3.67 2.32 3.34 3.64 3 5 C1.68 4.67 0.36 4.34 -1 4 C-0.67 2.68 -0.34 1.36 0 0 Z " fill="#0575BC" transform="translate(126,62)"/>
<path d="M0 0 C1.32 0 2.64 0 4 0 C4 1.32 4 2.64 4 4 C2.35 3.67 0.7 3.34 -1 3 C-0.67 2.01 -0.34 1.02 0 0 Z " fill="#EAF4F5" transform="translate(100,161)"/>
<path d="M0 0 C1.98 0 3.96 0 6 0 C5.34 1.65 4.68 3.3 4 5 C3.01 4.67 2.02 4.34 1 4 C0.3125 1.9375 0.3125 1.9375 0 0 Z " fill="#F4F9F7" transform="translate(103,151)"/>
<path d="M0 0 C0.66 0.66 1.32 1.32 2 2 C1.625 5.125 1.625 5.125 1 8 C0.34 8 -0.32 8 -1 8 C-0.67 5.36 -0.34 2.72 0 0 Z " fill="#0476BD" transform="translate(112,144)"/>
</svg>
